<?xml version="1.0" encoding="UTF-8"?>
<svg xmlns="http://www.w3.org/2000/svg" xmlns:xlink="http://www.w3.org/1999/xlink" viewBox="0 0 24 24" width="24px" height="24px">
<g id="surface10397455">
<rect x="0" y="0" width="24" height="24" style="fill:rgb(86.666667%,86.666667%,86.666667%);fill-opacity:1;stroke:none;"/>
<path style=" stroke:none;fill-rule:nonzero;fill:rgb(100%,39.215687%,39.215687%);fill-opacity:1;" d="M 22.636719 10.1875 L 19.800781 9.722656 C 19.632812 9.152344 19.40625 8.605469 19.121094 8.089844 L 20.777344 5.726562 C 20.914062 5.539062 20.890625 5.277344 20.726562 5.113281 L 18.859375 3.246094 C 18.691406 3.082031 18.429688 3.058594 18.238281 3.195312 L 15.914062 4.867188 C 15.390625 4.578125 14.839844 4.347656 14.265625 4.183594 L 13.773438 1.359375 C 13.730469 1.128906 13.53125 0.960938 13.300781 0.960938 L 10.660156 0.960938 C 10.421875 0.960938 10.222656 1.128906 10.183594 1.363281 L 9.726562 4.171875 C 9.148438 4.339844 8.597656 4.566406 8.078125 4.851562 L 5.757812 3.195312 C 5.566406 3.058594 5.304688 3.078125 5.140625 3.246094 L 3.273438 5.109375 C 3.109375 5.277344 3.085938 5.535156 3.21875 5.726562 L 4.851562 8.058594 C 4.5625 8.585938 4.328125 9.140625 4.160156 9.71875 L 1.363281 10.1875 C 1.132812 10.226562 0.960938 10.425781 0.960938 10.660156 L 0.960938 13.300781 C 0.960938 13.53125 1.128906 13.730469 1.355469 13.773438 L 4.15625 14.269531 C 4.324219 14.847656 4.554688 15.402344 4.847656 15.929688 L 3.195312 18.238281 C 3.058594 18.429688 3.078125 18.691406 3.246094 18.859375 L 5.113281 20.726562 C 5.277344 20.890625 5.535156 20.914062 5.726562 20.78125 L 8.0625 19.144531 C 8.589844 19.429688 9.144531 19.660156 9.71875 19.828125 L 10.1875 22.640625 C 10.222656 22.871094 10.425781 23.039062 10.660156 23.039062 L 13.300781 23.039062 C 13.53125 23.039062 13.730469 22.871094 13.769531 22.644531 L 14.273438 19.816406 C 14.847656 19.648438 15.398438 19.417969 15.917969 19.128906 L 18.273438 20.78125 C 18.464844 20.914062 18.722656 20.890625 18.890625 20.726562 L 20.753906 18.859375 C 20.921875 18.691406 20.941406 18.429688 20.804688 18.238281 L 19.125 15.90625 C 19.410156 15.390625 19.636719 14.839844 19.800781 14.269531 L 22.640625 13.773438 C 22.871094 13.730469 23.039062 13.53125 23.039062 13.300781 L 23.039062 10.660156 C 23.039062 10.425781 22.867188 10.222656 22.636719 10.1875 Z M 12 15.359375 C 10.144531 15.359375 8.640625 13.855469 8.640625 12 C 8.640625 10.144531 10.144531 8.640625 12 8.640625 C 13.855469 8.640625 15.359375 10.144531 15.359375 12 C 15.359375 13.855469 13.855469 15.359375 12 15.359375 Z M 12 15.359375 "/>
</g>
</svg>
